<svg width="37" height="37" viewBox="0 0 37 37" fill="none" xmlns="http://www.w3.org/2000/svg">
<mask id="mask0_86_497" style="mask-type:luminance" maskUnits="userSpaceOnUse" x="0" y="0" width="37" height="37">
<path d="M36.9778 0H0V36.9778H36.9778V0Z" fill="white"/>
</mask>
<g mask="url(#mask0_86_497)">
<path d="M18.4131 0.75H18.5605C25.8652 0.75001 29.8659 1.50497 32.6445 4.19434V4.19531C35.4904 7.09828 36.2187 11.0691 36.2188 18.3818V18.5889C36.2188 25.9069 35.4897 29.9027 32.6475 32.7734C29.8664 35.4656 25.8958 36.2207 18.5586 36.2207H18.4111C11.0681 36.2207 7.06985 35.4637 4.31836 32.7705C1.4771 29.8681 0.75 25.897 0.75 18.5889V18.3818C0.750024 11.0749 1.47763 7.07808 4.31152 4.20801C7.09303 1.50773 11.0665 0.75 18.4131 0.75Z" stroke="#171717" stroke-width="1.5"/>
<path d="M32.5677 18.2054C32.5677 18.0646 32.4532 17.948 32.3124 17.9414C27.2593 17.75 24.1841 17.1055 22.0326 14.954C19.8767 12.7982 19.2343 9.72059 19.0429 4.65654C19.0385 4.51575 18.9219 4.40137 18.7789 4.40137H18.1894C18.0486 4.40137 17.932 4.51575 17.9254 4.65654C17.734 9.71839 17.0917 12.7982 14.9358 14.954C12.7822 17.1077 9.70897 17.75 4.65593 17.9414C4.51514 17.9458 4.40076 18.0624 4.40076 18.2054V18.795C4.40076 18.9358 4.51514 19.0524 4.65593 19.059C9.70897 19.2503 12.7844 19.8949 14.9358 22.0464C17.0873 24.1978 17.7296 27.2667 17.9232 32.3107C17.9276 32.4516 18.0442 32.566 18.1872 32.566H18.7789C18.9197 32.566 19.0363 32.4516 19.0429 32.3107C19.2365 27.2667 19.8789 24.1978 22.0304 22.0464C24.1841 19.8927 27.2571 19.2503 32.3102 19.059C32.451 19.0546 32.5655 18.938 32.5655 18.795V18.2054H32.5677Z" fill="#171717"/>
</g>
</svg>
