<svg width="45" height="45" viewBox="0 0 45 45" fill="none" xmlns="http://www.w3.org/2000/svg">
<mask id="mask0_103_1005" style="mask-type:luminance" maskUnits="userSpaceOnUse" x="0" y="0" width="45" height="45">
<path d="M45 0H0V45H45V0Z" fill="white"/>
</mask>
<g mask="url(#mask0_103_1005)">
<path d="M22.4049 44.992H22.5843C31.5191 44.992 36.7052 44.0924 40.3788 40.526C44.1244 36.7429 44.9894 31.5217 44.9894 22.6218V22.3701C44.9894 13.473 44.1244 8.28673 40.3788 4.46599C36.7079 0.899625 31.4843 0 22.587 0H22.4076C13.473 0 8.28404 0.899625 4.61058 4.46599C0.864819 8.24924 0 13.473 0 22.3701V22.6218C0 31.519 0.864819 36.7054 4.61058 40.526C8.24925 44.0924 13.473 44.992 22.4049 44.992Z" fill="#171717"/>
<path d="M39.6331 22.1543C39.6331 21.9829 39.4939 21.841 39.3225 21.833C33.1731 21.6001 29.4307 20.8157 26.8125 18.1975C24.1888 15.574 23.4071 11.8287 23.1742 5.666C23.1689 5.49467 23.027 5.35547 22.853 5.35547H22.1355C21.9642 5.35547 21.8223 5.49467 21.8143 5.666C21.5813 11.826 20.7996 15.574 18.1761 18.1975C15.5552 20.8184 11.8153 21.6001 5.666 21.833C5.49467 21.8384 5.35547 21.9802 5.35547 22.1543V22.8717C5.35547 23.0431 5.49467 23.1849 5.666 23.193C11.8153 23.4259 15.5579 24.2103 18.1761 26.8285C20.7943 29.4467 21.576 33.1813 21.8116 39.3197C21.8169 39.4911 21.9588 39.6303 22.1328 39.6303H22.853C23.0243 39.6303 23.1662 39.4911 23.1742 39.3197C23.4098 33.1813 24.1915 29.4467 26.8098 26.8285C29.4307 24.2076 33.1705 23.4259 39.3198 23.193C39.4912 23.1876 39.6304 23.0457 39.6304 22.8717V22.1543H39.6331Z" fill="white"/>
</g>
</svg>
