<svg width="14" height="10" viewBox="0 0 14 10" fill="none" xmlns="http://www.w3.org/2000/svg">
<mask id="path-1-inside-1_86_492" fill="white">
<path d="M14 0L7 7L0 0"/>
</mask>
<path d="M15.0607 1.06066C15.6464 0.474874 15.6464 -0.474874 15.0607 -1.06066C14.4749 -1.64645 13.5251 -1.64645 12.9393 -1.06066L14 0L15.0607 1.06066ZM7 7L5.93934 8.06066C6.52513 8.64645 7.47487 8.64645 8.06066 8.06066L7 7ZM1.06066 -1.06066C0.474874 -1.64645 -0.474874 -1.64645 -1.06066 -1.06066C-1.64645 -0.474874 -1.64645 0.474874 -1.06066 1.06066L0 0L1.06066 -1.06066ZM14 0L12.9393 -1.06066L5.93934 5.93934L7 7L8.06066 8.06066L15.0607 1.06066L14 0ZM7 7L8.06066 5.93934L1.06066 -1.06066L0 0L-1.06066 1.06066L5.93934 8.06066L7 7Z" fill="#171717" mask="url(#path-1-inside-1_86_492)"/>
<path d="M13.25 0.75V9.25H0.75V0.75H13.25Z" stroke="#171717" stroke-width="1.5" stroke-miterlimit="10" stroke-linecap="round" stroke-linejoin="round"/>
</svg>
