<svg width="18" height="18" viewBox="0 0 18 18" fill="none" xmlns="http://www.w3.org/2000/svg">
<path d="M3.58398 0.751953C3.75567 0.762685 3.92311 0.810233 4.0752 0.890625C4.22725 0.971005 4.36027 1.08296 4.46582 1.21875H4.4668L6.48438 3.81348C6.68412 4.07034 6.77139 4.39533 6.72949 4.71484L6.70312 4.85156L6.08789 7.31543V7.31738C6.02544 7.56991 6.0283 7.83424 6.09766 8.08496C6.16711 8.33585 6.30079 8.56446 6.48438 8.74902L6.48535 8.75098L9.25 11.5146L9.25098 11.5156C9.43575 11.6996 9.66468 11.8329 9.91602 11.9023C10.1674 11.9718 10.4325 11.9761 10.6855 11.9131L10.6865 11.9121L13.1484 11.2969L13.1475 11.2959C13.3262 11.2515 13.5132 11.2491 13.6934 11.2871C13.8286 11.3156 13.9577 11.367 14.0752 11.4385L14.1885 11.5166L16.7812 13.5342C17.358 13.9831 17.4102 14.8344 16.8955 15.3486H16.8945L15.7314 16.5127C15.1191 17.1249 14.2475 17.3923 13.4355 17.1748L13.2744 17.125C10.4117 16.1191 7.81257 14.4796 5.6709 12.3301L5.66895 12.3281L5.27148 11.9219C3.31687 9.86158 1.81818 7.40985 0.875 4.72656C0.593237 3.92486 0.804456 3.04009 1.37012 2.39453L1.48828 2.26855L2.65039 1.10547C2.77204 0.983779 2.91816 0.889 3.0791 0.828125C3.24001 0.767276 3.41229 0.741238 3.58398 0.751953Z" stroke="currentColor" stroke-width="1.5"/>
</svg>
