<svg width="45" height="45" viewBox="0 0 45 45" fill="none" xmlns="http://www.w3.org/2000/svg">
<rect x="0.75" y="0.75" width="43.5" height="43.5" fill="#171717" stroke="#171717" stroke-width="1.5"/>
<path d="M12.0154 16.8816H15.3838C15.4958 22.5176 17.981 24.9038 19.9519 25.3982V16.8816H23.1291V21.7397C25.0737 21.5288 27.1172 19.314 27.8027 16.8816H30.98C30.7229 18.1472 30.2021 19.3403 29.4573 20.395C28.7124 21.4497 27.7632 22.3396 26.6558 23.0054C27.8884 23.6184 28.9761 24.4819 29.8462 25.5432C30.7163 26.6045 31.3557 27.8438 31.7117 29.1687H28.218C27.895 28.0151 27.2424 26.9868 26.3328 26.2024C25.4231 25.418 24.3091 24.9236 23.1226 24.7786V29.1687H22.7402C16.01 29.1687 12.1736 24.5544 12.0088 16.875L12.0154 16.8816Z" fill="white"/>
</svg>
