<svg width="37" height="37" viewBox="0 0 37 37" fill="none" xmlns="http://www.w3.org/2000/svg">
<rect x="0.75" y="0.75" width="35.4778" height="35.4778" stroke="#171717" stroke-width="1.5"/>
<path d="M9.87334 13.8716H12.6413C12.7333 18.5029 14.7754 20.4637 16.395 20.87V13.8716H19.0058V17.8637C20.6038 17.6904 22.2829 15.8704 22.8463 13.8716H25.4571C25.2458 14.9116 24.8179 15.892 24.2058 16.7587C23.5938 17.6254 22.8138 18.3566 21.9038 18.9037C22.9167 19.4075 23.8104 20.117 24.5254 20.9891C25.2404 21.8612 25.7658 22.8795 26.0583 23.9683H23.1875C22.9221 23.0204 22.3858 22.1754 21.6383 21.5308C20.8908 20.8862 19.9754 20.48 19.0004 20.3608V23.9683H18.6863C13.1558 23.9683 10.0033 20.1766 9.86792 13.8662L9.87334 13.8716Z" fill="#171717"/>
</svg>
