<svg width="17" height="11" viewBox="0 0 17 11" fill="none" xmlns="http://www.w3.org/2000/svg">
<path d="M0.00541645 0.00541755H2.77333C2.86542 4.63667 4.9075 6.5975 6.52708 7.00375V0.00541755H9.13792V3.9975C10.7358 3.82417 12.415 2.00417 12.9783 0.00541755H15.5892C15.3779 1.04542 14.95 2.02584 14.3379 2.8925C13.7258 3.75917 12.9458 4.49042 12.0358 5.0375C13.0488 5.54125 13.9425 6.25084 14.6575 7.12292C15.3725 7.995 15.8979 9.01334 16.1904 10.1021H13.3196C13.0542 9.15417 12.5179 8.30917 11.7704 7.66459C11.0229 7.02 10.1075 6.61375 9.1325 6.49459V10.1021H8.81834C3.28792 10.1021 0.135417 6.31042 0 0L0.00541645 0.00541755Z" fill="currentColor"/>
</svg>
